<?xml version="1.0" encoding="utf-8"?>
<!-- Generator: Adobe Illustrator 27.5.0, SVG Export Plug-In . SVG Version: 6.00 Build 0)  -->
<svg version="1.1"
	 id="svg23" xmlns:inkscape="http://www.inkscape.org/namespaces/inkscape" xmlns:svg="http://www.w3.org/2000/svg" xmlns:sodipodi="http://sodipodi.sourceforge.net/DTD/sodipodi-0.dtd"
	 xmlns="http://www.w3.org/2000/svg" xmlns:xlink="http://www.w3.org/1999/xlink" x="0px" y="0px" viewBox="0 0 308.8 304.9"
	 style="enable-background:new 0 0 308.8 304.9;" xml:space="preserve">
<style type="text/css">
	.st0{fill:#FFFFFF;}
</style>
<sodipodi:namedview  bordercolor="#000000" borderopacity="0.25" id="namedview25" inkscape:deskcolor="#d1d1d1" inkscape:pagecheckerboard="0" inkscape:pageopacity="0.0" inkscape:showpageshadow="2" pagecolor="#ffffff">
	</sodipodi:namedview>
<g id="SvgjsG2686" transform="matrix(2.284354285447385,0,0,2.284354285447385,27.980055421585643,-5.609520280720151)">
	<path id="path20" class="st0" d="M51.4,43.3l-0.9,12.3c-0.2,5.2,7.6,5.7,7.9,0.6l0.7-12.5C59.4,38.6,51.6,38.1,51.4,43.3z
		 M24.8,27.3L24.8,27.3c0.1,0,59.7-0.9,59.9-0.6c3.7,3.3,2.8,81,0.3,83.2c-1.2,0.9-13.5,1.6-26.8,1.7c-2.4-11.2-0.6-24.2-0.6-24.2
		c0.7-5.2-7.1-6.2-7.7-1.2c0,0.1-1.9,13.2,0.5,25.5c-13.3-0.1-25.3-0.7-26-1.9C22.1,105.8,24.5,27.6,24.8,27.3z"/>
</g>
<image style="overflow:visible;" width="1024" height="1024" xlink:href="../../../../../../Downloads/LordBuffCloud_Picture_a_bold_lime_green_letter_K_designed_with__96091824-5112-4973-b780-5eb9e2732d03.png"  transform="matrix(0.3015 0 0 0.2978 0 0)">
</image>
</svg>
